<?xml version="1.0" encoding="UTF-8" standalone="no"?>
<!-- Created with Inkscape (http://www.inkscape.org/) -->

<svg
   xmlns:dc="http://purl.org/dc/elements/1.1/"
   xmlns:cc="http://creativecommons.org/ns#"
   xmlns:rdf="http://www.w3.org/1999/02/22-rdf-syntax-ns#"
   xmlns:svg="http://www.w3.org/2000/svg"
   xmlns="http://www.w3.org/2000/svg"
   xmlns:sodipodi="http://sodipodi.sourceforge.net/DTD/sodipodi-0.dtd"
   xmlns:inkscape="http://www.inkscape.org/namespaces/inkscape"
   id="svg3004"
   version="1.1"
   inkscape:version="0.48.3.1 r9886"
   width="765"
   height="990"
   xml:space="preserve"
   sodipodi:docname="logo_01.pdf"><metadata
     id="metadata3010"><rdf:RDF><cc:Work
         rdf:about=""><dc:format>image/svg+xml</dc:format><dc:type
           rdf:resource="http://purl.org/dc/dcmitype/StillImage" /><dc:title></dc:title></cc:Work></rdf:RDF></metadata><defs
     id="defs3008"><clipPath
       clipPathUnits="userSpaceOnUse"
       id="clipPath3018"><path
         d="M 0,0 612,0 612,792 0,792 0,0 z"
         clip-rule="evenodd"
         id="path3020" /></clipPath></defs><sodipodi:namedview
     pagecolor="#ffffff"
     bordercolor="#666666"
     borderopacity="1"
     objecttolerance="10"
     gridtolerance="10"
     guidetolerance="10"
     inkscape:pageopacity="0"
     inkscape:pageshadow="2"
     inkscape:window-width="1366"
     inkscape:window-height="744"
     id="namedview3006"
     showgrid="false"
     inkscape:zoom="0.6030303"
     inkscape:cx="382.5"
     inkscape:cy="495"
     inkscape:window-x="0"
     inkscape:window-y="24"
     inkscape:window-maximized="1"
     inkscape:current-layer="g3012" /><g
     id="g3012"
     inkscape:groupmode="layer"
     inkscape:label="logo_01"
     transform="matrix(1.25,0,0,-1.25,0,990)"><g
       clip-path="url(#clipPath3018)"
       id="g3016"
       transform="matrix(2.5296893,0,0,4.0776024,-597.0675,-1371.5802)"><path
         inkscape:connector-curvature="0"
         id="path3024"
         style="fill:#ff0000;fill-opacity:1;fill-rule:evenodd;stroke:none"
         d="m 421.5,451.7 6,14.7 13.6,0 -8.4,20.4 -14.7,-35.1 -12.5,0 20.9,50.5 c 0.6,1.7 1.5,3.1 2.7,4.4 1.3,1.3 2.6,2 3.8,2 1.2,0 2.4,-0.7 3.7,-2 1.1,-1.2 2,-2.7 2.7,-4.4 l 20.4,-50.5 -38.2,0 z" /><path
         inkscape:connector-curvature="0"
         id="path3026"
         style="fill:#ff0000;fill-opacity:1;fill-rule:evenodd;stroke:none"
         d="m 418,451.7 -14.7,0 -9.8,14.3 -13.9,0 0,-14.3 -10.1,0 0,29 28.1,0 c 1.7,0 3.1,0.4 4.2,1.3 1.4,1.2 2.1,2.9 2.1,5.1 0,4.4 -2.1,6.6 -6.3,6.6 l -28.1,0 6.6,14.8 20.5,0 c 5.1,0 9.2,-1.7 12.4,-5.1 3.5,-3.8 5.3,-9.3 5.3,-16.4 0,-3.9 -0.7,-7.5 -2.1,-10.8 -1.5,-3.2 -3.4,-5.7 -6,-7.4 L 418,451.7 z" /><path
         inkscape:connector-curvature="0"
         id="path3028"
         style="fill:#ff0000;fill-opacity:1;fill-rule:evenodd;stroke:none"
         d="m 372.7,480.6 c 0,-8.3 -1.8,-15.2 -5.5,-20.7 -3.7,-5.4 -8.4,-8.2 -14.1,-8.2 l -21.8,0 0,35.4 10.1,0 0,-20.7 11.7,0 c 2.8,0 5.1,1.2 6.9,3.7 1.8,2.5 2.7,5.8 2.7,9.8 0,4 -0.9,7.3 -2.7,10 -1.8,2.5 -4.1,3.8 -6.9,3.8 l -21.8,0 6.4,14.8 15.4,0 c 5.8,0 10.5,-2.6 14.1,-7.8 3.7,-5.1 5.5,-11.8 5.5,-20.1 z" /><path
         inkscape:connector-curvature="0"
         id="path3030"
         style="fill:#ff0000;fill-opacity:1;fill-rule:evenodd;stroke:none"
         d="m 342.1,508.5 c -6.5,-12.7 -12.9,-25.3 -19.3,-38 0,-6.2 0,-12.5 0,-18.8 -3.4,0 -6.8,0 -10.1,0 0,6.3 0,12.6 0,18.9 -6.7,12.6 -13.3,25.2 -19.9,37.9 4.2,0 8.6,0 12.9,0 4,-7.7 8.1,-15.4 12.1,-23.1 3.8,7.7 7.6,15.4 11.4,23.1 4.3,0 8.6,0 12.9,0 z" /><path
         inkscape:connector-curvature="0"
         id="path3032"
         style="fill:#ff0000;fill-opacity:1;fill-rule:evenodd;stroke:none"
         d="m 303.2,451.7 c -3.3,0 -6.7,0 -10,0 0,7.1 0,14.1 0,21.2 -6.5,0 -12.9,0 -19.4,0 0,-7.1 0,-14.1 0,-21.2 -3.3,0 -6.7,0 -10.1,0 0,18.9 0,37.9 0,56.8 3.4,0 6.8,0 10.1,0 0,-7 0,-13.9 0,-20.9 6.5,0 12.9,0 19.4,0 0,7 0,13.9 0,20.9 3.3,0 6.7,0 10,0 0,-18.9 0,-37.9 0,-56.8 z" /></g></g></svg>